<?xml version="1.0" encoding="UTF-8"?>
<!DOCTYPE svg PUBLIC "-//W3C//DTD SVG 1.1//EN" "http://www.w3.org/Graphics/SVG/1.1/DTD/svg11.dtd">
<svg version="1.1" xmlns="http://www.w3.org/2000/svg" xmlns:xlink="http://www.w3.org/1999/xlink" viewBox="0 0 9.28309 11.1719">
    <g>
        <rect height="11.1719" opacity="0" width="9.28309" x="0" y="0"/>
        <path d="M1.32054 11.1653L5.3919 11.1653C7.77459 11.1653 9.28309 9.91111 9.28309 7.98207C9.28309 6.45685 8.18652 5.35539 6.5949 5.26872L6.5949 5.20232C7.8988 5.0261 8.77942 4.05222 8.77942 2.81609C8.77942 1.06513 7.44852 0 5.27919 0L1.32054 0C0.484451 0-2.22045e-16 0.48614-2.22045e-16 1.34876L-2.22045e-16 9.81656C-2.22045e-16 10.6792 0.484451 11.1653 1.32054 11.1653ZM2.5816 9.35784L2.5816 6.25636L4.53772 6.25636C5.90656 6.25636 6.66989 6.79025 6.66989 7.79468C6.66989 8.81398 5.92988 9.35784 4.59278 9.35784ZM2.5816 4.63627L2.5816 1.83233L4.50138 1.83233C5.59231 1.83233 6.23754 2.33953 6.23754 3.18936C6.23754 4.09579 5.51746 4.63627 4.30659 4.63627Z" fill="currentColor"/>
    </g>
</svg>
