<svg width="16" height="17" viewBox="0 0 16 17" fill="none" xmlns="http://www.w3.org/2000/svg">
<path d="M2.66666 13.5V3.49999C2.66666 3.05797 2.84226 2.63404 3.15482 2.32148C3.46738 2.00892 3.8913 1.83333 4.33333 1.83333H12.6667C12.8435 1.83333 13.013 1.90357 13.1381 2.02859C13.2631 2.15361 13.3333 2.32318 13.3333 2.49999V14.5C13.3333 14.6768 13.2631 14.8464 13.1381 14.9714C13.013 15.0964 12.8435 15.1667 12.6667 15.1667H4.33333C3.8913 15.1667 3.46738 14.9911 3.15482 14.6785C2.84226 14.3659 2.66666 13.942 2.66666 13.5ZM2.66666 13.5C2.66666 13.058 2.84226 12.634 3.15482 12.3215C3.46738 12.0089 3.8913 11.8333 4.33333 11.8333H13.3333" stroke="currentColor" stroke-width="1.5" stroke-linecap="round" stroke-linejoin="round"/>
</svg>
