<svg width="16" height="17" viewBox="0 0 16 17" fill="none" xmlns="http://www.w3.org/2000/svg">
<g clip-path="url(#clip0_27_4076)">
<path d="M14.9336 6.67438H15.6667V10.3256H14.9336V6.67438Z" fill="currentColor"/>
<path d="M14.2056 10.3256H14.9339V11.7871H14.2056V10.3256Z" fill="currentColor"/>
<path d="M14.2056 5.21291H14.9339V6.67436H14.2056V5.21291Z" fill="currentColor"/>
<path d="M13.4771 11.7871H14.2054V13.2437H13.4771V11.7871Z" fill="currentColor"/>
<path d="M13.4771 3.75624H14.2054V5.21291H13.4771V3.75624Z" fill="currentColor"/>
<path d="M12.7441 13.2437H13.4773V13.9769H12.7441V13.2437Z" fill="currentColor"/>
<path d="M12.7441 3.02312H13.4773V3.75624H12.7441V3.02312Z" fill="currentColor"/>
<path d="M11.2822 13.9769H12.7437V14.7052H11.2822V13.9769Z" fill="currentColor"/>
<path d="M11.2822 2.29478H12.7437V3.02312H11.2822V2.29478Z" fill="currentColor"/>
<path d="M6.90265 9.59728H7.63577V10.3256H8.36411V9.59728H9.09244V8.86416H12.0154V8.13582H9.09244V7.4027H8.36411V3.02312H7.63577V7.4027H6.90265V8.13582H6.17432V8.86416H6.90265V9.59728Z" fill="currentColor"/>
<path d="M9.82568 14.7052H11.2823V15.4383H9.82568V14.7052Z" fill="currentColor"/>
<path d="M9.82568 1.56166H11.2823V2.29479H9.82568V1.56166Z" fill="currentColor"/>
<path d="M6.17432 15.4383H9.82557V16.1667H6.17432V15.4383Z" fill="currentColor"/>
<path d="M6.17432 0.833328H9.82557V1.56166H6.17432V0.833328Z" fill="currentColor"/>
<path d="M4.71289 14.7052H6.17435V15.4383H4.71289V14.7052Z" fill="currentColor"/>
<path d="M4.71289 1.56166H6.17435V2.29479H4.71289V1.56166Z" fill="currentColor"/>
<path d="M3.25146 13.9769H4.71292V14.7052H3.25146V13.9769Z" fill="currentColor"/>
<path d="M3.25146 2.29478H4.71292V3.02312H3.25146V2.29478Z" fill="currentColor"/>
<path d="M2.52344 13.2437H3.25177V13.9769H2.52344V13.2437Z" fill="currentColor"/>
<path d="M2.52344 3.02312H3.25177V3.75624H2.52344V3.02312Z" fill="currentColor"/>
<path d="M1.79492 11.7871H2.52326V13.2437H1.79492V11.7871Z" fill="currentColor"/>
<path d="M1.79492 3.75624H2.52326V5.21291H1.79492V3.75624Z" fill="currentColor"/>
<path d="M1.06201 10.3256H1.79514V11.7871H1.06201V10.3256Z" fill="currentColor"/>
<path d="M1.06201 5.21291H1.79514V6.67436H1.06201V5.21291Z" fill="currentColor"/>
<path d="M0.333496 6.67438H1.06183V10.3256H0.333496V6.67438Z" fill="currentColor"/>
</g>
<defs>
<clipPath id="clip0_27_4076">
<rect width="16" height="16" fill="white" transform="translate(0 0.5)"/>
</clipPath>
</defs>
</svg>
