<svg width="14" height="15" viewBox="0 0 14 15" fill="none" xmlns="http://www.w3.org/2000/svg">
<g clip-path="url(#clip0_27_4074)">
<path fill-rule="evenodd" clip-rule="evenodd" d="M9.33333 2.83333H5.83333V3.99999L4.66667 3.99999V5.16666H2.33333V6.33333L1.16667 6.33333V7.49999H0V11H1.16667V12.1667H12.8333L12.8333 11H14V7.49999H12.8333V6.33333H11.6667V5.16666H10.5V3.99999L9.33333 3.99999V2.83333ZM10.5 7.49999L11.6667 7.49999L12.8333 7.49999L12.8333 11H1.16667V7.49999H2.33333V6.33333H4.66667V7.49999H5.83333V6.33333L4.66667 6.33333V5.16666H5.83333V3.99999H9.33333V5.16666H10.5V6.33333V7.49999ZM10.5 7.49999V8.66666H9.33333V7.49999H10.5Z" fill="currentColor"/>
</g>
<defs>
<clipPath id="clip0_27_4074">
<rect width="14" height="14" fill="white" transform="translate(0 0.5)"/>
</clipPath>
</defs>
</svg>
