<svg width="16" height="17" viewBox="0 0 16 17" fill="none" xmlns="http://www.w3.org/2000/svg">
<path d="M9.69067 14.9573C9.71599 15.0205 9.76002 15.0743 9.81685 15.1117C9.87367 15.1491 9.94057 15.1682 10.0086 15.1664C10.0766 15.1647 10.1424 15.1422 10.1972 15.1019C10.2521 15.0617 10.2933 15.0057 10.3153 14.9413L14.6487 2.27466C14.67 2.21559 14.6741 2.15167 14.6604 2.09037C14.6467 2.02907 14.6159 1.97293 14.5715 1.92852C14.5271 1.8841 14.4709 1.85326 14.4096 1.83959C14.3483 1.82592 14.2844 1.82999 14.2253 1.85133L1.55867 6.18466C1.49433 6.20673 1.43828 6.24794 1.39805 6.30278C1.35781 6.35761 1.33531 6.42344 1.33357 6.49144C1.33183 6.55943 1.35093 6.62632 1.3883 6.68315C1.42568 6.73997 1.47954 6.784 1.54267 6.80933L6.82933 8.92933C6.99646 8.99624 7.1483 9.0963 7.27571 9.22348C7.40312 9.35066 7.50345 9.50233 7.57067 9.66933L9.69067 14.9573Z" stroke="currentColor" stroke-width="1.5" stroke-linecap="round" stroke-linejoin="round"/>
<path d="M14.5693 1.93134L7.276 9.224" stroke="currentColor" stroke-width="1.5" stroke-linecap="round" stroke-linejoin="round"/>
</svg>
