<?xml version="1.0" encoding="UTF-8"?>
<!DOCTYPE svg PUBLIC "-//W3C//DTD SVG 1.1//EN" "http://www.w3.org/Graphics/SVG/1.1/DTD/svg11.dtd">
<svg version="1.1" xmlns="http://www.w3.org/2000/svg" xmlns:xlink="http://www.w3.org/1999/xlink" viewBox="0 0 21.3445 13.3999">
    <g>
        <rect height="13.3999" opacity="0" width="21.3445" x="0" y="0"/>
        <path d="M10.6731 13.3999C16.9851 13.3999 21.3445 8.29473 21.3445 6.70495C21.3445 5.1069 16.9766 0.00996875 10.6731 0.00996875C4.45065 0.00996875-6.66134e-16 5.1069-6.66134e-16 6.70495C-6.66134e-16 8.29473 4.44221 13.3999 10.6731 13.3999ZM10.6731 12.163C5.53251 12.163 1.36621 7.8069 1.36621 6.70495C1.36621 5.77521 5.53251 1.24353 10.6731 1.24353C15.8037 1.24353 19.97 5.77521 19.97 6.70495C19.97 7.8069 15.8037 12.163 10.6731 12.163ZM10.6731 11.0713C13.0938 11.0713 15.0576 9.10742 15.0576 6.6867C15.0576 4.26598 13.0938 2.30214 10.6731 2.30214C8.25236 2.30214 6.28852 4.26598 6.28852 6.6867C6.28852 9.10742 8.25236 11.0713 10.6731 11.0713ZM10.6731 8.14825C9.87252 8.14825 9.21981 7.49554 9.21981 6.69498C9.21981 5.89443 9.87252 5.24171 10.6731 5.24171C11.4802 5.24171 12.1247 5.89443 12.1247 6.69498C12.1247 7.49554 11.4802 8.14825 10.6731 8.14825Z" fill="currentColor"/>
    </g>
</svg>
