<svg width="14" height="14" viewBox="0 0 14 14" fill="none" xmlns="http://www.w3.org/2000/svg">
<path d="M2.91683 1.16669H5.25016V2.33335H4.0835V3.50002H2.91683V1.16669Z" fill="white"/>
<path d="M2.91683 7.00002H1.75016V3.50002H2.91683V7.00002Z" fill="white"/>
<path d="M4.0835 8.16669H2.91683V7.00002H4.0835V8.16669Z" fill="white"/>
<path fill-rule="evenodd" clip-rule="evenodd" d="M5.25016 9.33335V8.16669H4.0835V9.33335H1.75016V8.16669H0.583496V9.33335H1.75016V10.5H4.0835V12.8334H5.25016V10.5H6.41683V9.33335H5.25016ZM5.25016 9.33335V10.5H4.0835V9.33335H5.25016Z" fill="white"/>
<path d="M8.75016 2.33335V3.50002H5.25016V2.33335H8.75016Z" fill="white"/>
<path d="M11.0835 3.50002H9.91683V2.33335H8.75016V1.16669H11.0835V3.50002Z" fill="white"/>
<path d="M11.0835 7.00002V3.50002H12.2502V7.00002H11.0835Z" fill="white"/>
<path d="M9.91683 8.16669V7.00002H11.0835V8.16669H9.91683Z" fill="white"/>
<path d="M8.75016 9.33335V8.16669H9.91683V9.33335H8.75016Z" fill="white"/>
<path d="M8.75016 10.5H7.5835V9.33335H8.75016V10.5Z" fill="white"/>
<path d="M8.75016 10.5H9.91683V12.8334H8.75016V10.5Z" fill="white"/>
</svg>
