<svg width="16" height="17" viewBox="0 0 16 17" fill="none" xmlns="http://www.w3.org/2000/svg">
<path d="M10 15.1666V12.5C10.0927 11.6648 9.85329 10.8267 9.33333 10.1666C11.3333 10.1666 13.3333 8.83331 13.3333 6.49998C13.3867 5.66665 13.1533 4.84665 12.6667 4.16665C12.8533 3.39998 12.8533 2.59998 12.6667 1.83331C12.6667 1.83331 12 1.83331 10.6667 2.83331C8.90667 2.49998 7.09333 2.49998 5.33333 2.83331C4 1.83331 3.33333 1.83331 3.33333 1.83331C3.13333 2.59998 3.13333 3.39998 3.33333 4.16665C2.84792 4.8439 2.61232 5.6685 2.66667 6.49998C2.66667 8.83331 4.66667 10.1666 6.66667 10.1666C6.40667 10.4933 6.21333 10.8666 6.1 11.2666C5.98667 11.6666 5.95333 12.0866 6 12.5V15.1666" stroke="currentColor" stroke-width="1.5" stroke-linecap="round" stroke-linejoin="round"/>
<path d="M6 12.5C2.99333 13.8334 2.66667 11.1667 1.33333 11.1667" stroke="currentColor" stroke-width="1.5" stroke-linecap="round" stroke-linejoin="round"/>
</svg>
