<svg width="16" height="17" viewBox="0 0 16 17" fill="none" xmlns="http://www.w3.org/2000/svg">
<path d="M10 14.5V9.16667C10 8.98986 9.92976 8.82029 9.80474 8.69526C9.67971 8.57024 9.51014 8.5 9.33333 8.5H6.66667C6.48986 8.5 6.32029 8.57024 6.19526 8.69526C6.07024 8.82029 6 8.98986 6 9.16667V14.5" stroke="currentColor" stroke-width="1.5" stroke-linecap="round" stroke-linejoin="round"/>
<path d="M2 7.16667C1.99995 6.97271 2.04222 6.78108 2.12386 6.60514C2.20549 6.42921 2.32453 6.2732 2.47267 6.148L7.13933 2.14867C7.37999 1.94527 7.6849 1.83368 8 1.83368C8.3151 1.83368 8.62001 1.94527 8.86067 2.14867L13.5273 6.148C13.6755 6.2732 13.7945 6.42921 13.8761 6.60514C13.9578 6.78108 14 6.97271 14 7.16667V13.1667C14 13.5203 13.8595 13.8594 13.6095 14.1095C13.3594 14.3595 13.0203 14.5 12.6667 14.5H3.33333C2.97971 14.5 2.64057 14.3595 2.39052 14.1095C2.14048 13.8594 2 13.5203 2 13.1667V7.16667Z" stroke="currentColor" stroke-width="1.5" stroke-linecap="round" stroke-linejoin="round"/>
</svg>
