<svg width="16" height="17" viewBox="0 0 16 17" fill="none" xmlns="http://www.w3.org/2000/svg">
<path d="M12.6667 2.5H3.33333C2.59695 2.5 2 3.09695 2 3.83333V13.1667C2 13.903 2.59695 14.5 3.33333 14.5H12.6667C13.403 14.5 14 13.903 14 13.1667V3.83333C14 3.09695 13.403 2.5 12.6667 2.5Z" stroke="currentColor" stroke-width="1.5" stroke-linecap="round" stroke-linejoin="round"/>
<path d="M6 7.83332C6.73638 7.83332 7.33333 7.23637 7.33333 6.49999C7.33333 5.76361 6.73638 5.16666 6 5.16666C5.26362 5.16666 4.66667 5.76361 4.66667 6.49999C4.66667 7.23637 5.26362 7.83332 6 7.83332Z" stroke="currentColor" stroke-width="1.5" stroke-linecap="round" stroke-linejoin="round"/>
<path d="M14 10.5L11.9427 8.44266C11.6926 8.1927 11.3536 8.05228 11 8.05228C10.6464 8.05228 10.3074 8.1927 10.0573 8.44266L4 14.5" stroke="currentColor" stroke-width="1.5" stroke-linecap="round" stroke-linejoin="round"/>
</svg>
