<svg width="16" height="17" viewBox="0 0 16 17" fill="none" xmlns="http://www.w3.org/2000/svg">
<path d="M11.3333 1.83331H4.66667C2.82572 1.83331 1.33333 3.3257 1.33333 5.16665V11.8333C1.33333 13.6743 2.82572 15.1666 4.66667 15.1666H11.3333C13.1743 15.1666 14.6667 13.6743 14.6667 11.8333V5.16665C14.6667 3.3257 13.1743 1.83331 11.3333 1.83331Z" stroke="currentColor" stroke-width="1.5" stroke-linecap="round" stroke-linejoin="round"/>
<path d="M10.6667 8.08002C10.7489 8.63485 10.6542 9.2015 10.3958 9.69936C10.1375 10.1972 9.72876 10.601 9.22775 10.8531C8.72674 11.1053 8.15897 11.1931 7.60519 11.104C7.05142 11.0149 6.53984 10.7534 6.14323 10.3568C5.74661 9.96018 5.48516 9.4486 5.39605 8.89483C5.30694 8.34105 5.39471 7.77328 5.64688 7.27227C5.89906 6.77125 6.30279 6.36251 6.80066 6.10418C7.29852 5.84585 7.86517 5.75108 8.42 5.83335C8.98595 5.91727 9.5099 6.18099 9.91446 6.58556C10.319 6.99012 10.5827 7.51407 10.6667 8.08002Z" stroke="currentColor" stroke-width="1.5" stroke-linecap="round" stroke-linejoin="round"/>
<path d="M11.6667 4.83331H11.6733" stroke="currentColor" stroke-width="1.5" stroke-linecap="round" stroke-linejoin="round"/>
</svg>
