<svg width="16" height="17" viewBox="0 0 16 17" fill="none" xmlns="http://www.w3.org/2000/svg">
<path d="M6.66667 9.16666C6.95297 9.54942 7.31824 9.86612 7.7377 10.0953C8.15716 10.3245 8.62101 10.4607 9.09777 10.4949C9.57453 10.529 10.0531 10.4602 10.5009 10.2932C10.9487 10.1261 11.3554 9.86471 11.6933 9.52666L13.6933 7.52666C14.3005 6.89799 14.6365 6.05598 14.6289 5.18199C14.6213 4.308 14.2708 3.47196 13.6527 2.85394C13.0347 2.23591 12.1987 1.88535 11.3247 1.87775C10.4507 1.87016 9.60868 2.20614 8.98 2.81333L7.83333 3.95333" stroke="currentColor" stroke-width="1.5" stroke-linecap="round" stroke-linejoin="round"/>
<path d="M9.33333 7.83334C9.04703 7.45058 8.68176 7.13388 8.2623 6.90471C7.84284 6.67554 7.37899 6.53926 6.90223 6.50511C6.42547 6.47097 5.94694 6.53976 5.4991 6.70681C5.05126 6.87387 4.64459 7.13529 4.30667 7.47334L2.30667 9.47334C1.69947 10.102 1.36349 10.944 1.37109 11.818C1.37868 12.692 1.72924 13.528 2.34727 14.1461C2.9653 14.7641 3.80134 15.1147 4.67533 15.1222C5.54932 15.1298 6.39132 14.7939 7.02 14.1867L8.16 13.0467" stroke="currentColor" stroke-width="1.5" stroke-linecap="round" stroke-linejoin="round"/>
</svg>
