<svg width="18" height="14" viewBox="0 0 18 14" fill="none" xmlns="http://www.w3.org/2000/svg">
<ellipse cx="5.01242" cy="7.00009" rx="3.97531" ry="4.83951" fill="white"/>
<path d="M4.30902 13.2222C3.49318 13.2222 2.75777 13.0499 2.1028 12.7051C1.44783 12.3604 0.930748 11.8261 0.551554 11.1022C0.183851 10.3668 0 9.42454 0 8.27546C0 7.35621 0.126398 6.52313 0.379194 5.77623C0.631989 5.01785 0.953729 4.36862 1.34441 3.82856C1.7351 3.277 2.13153 2.85759 2.5337 2.57032C2.93588 2.27156 3.27485 2.12218 3.55063 2.12218C3.80343 2.12218 3.98153 2.16815 4.08495 2.26007C4.19986 2.352 4.25731 2.52436 4.25731 2.77716C4.25731 2.9725 4.21709 3.1506 4.13666 3.31147C4.05622 3.46085 3.93557 3.61023 3.7747 3.75961C3.39551 4.06986 3.06228 4.46055 2.77501 4.93167C2.48774 5.39129 2.26367 5.90263 2.1028 6.46568C1.95342 7.02872 1.87873 7.63198 1.87873 8.27546C1.87873 8.86149 1.96491 9.39006 2.13727 9.86118C2.30963 10.3208 2.57392 10.6885 2.93013 10.9643C3.28634 11.2286 3.75746 11.3607 4.34349 11.3607C4.96399 11.3607 5.53853 11.1539 6.0671 10.7402C6.60716 10.3151 7.03806 9.68882 7.3598 8.86149C7.69303 8.03416 7.85965 7.02872 7.85965 5.84518C7.85965 5.23617 7.78496 4.69036 7.63558 4.20775C7.49769 3.71365 7.27362 3.32871 6.96337 3.05293C6.65312 2.77716 6.2452 2.63927 5.73961 2.63927C5.30297 2.63927 4.90079 2.70821 4.53309 2.8461C4.17688 2.98399 3.84939 3.17933 3.55063 3.43213C3.25187 3.68492 2.9646 3.98368 2.68883 4.3284C2.5969 4.44331 2.48199 4.54098 2.34411 4.62142C2.20622 4.70185 2.0396 4.74207 1.84426 4.74207C1.60296 4.74207 1.39612 4.65014 1.22376 4.46629C1.0514 4.28244 0.96522 4.06412 0.96522 3.81132C0.96522 3.54703 1.08013 3.24828 1.30994 2.91505C1.53976 2.57032 1.86724 2.23709 2.2924 1.91535C2.71755 1.58212 3.22315 1.31209 3.80917 1.10526C4.3952 0.886933 5.03868 0.777771 5.73961 0.777771C6.64738 0.777771 7.39428 0.984604 7.9803 1.39827C8.57782 1.81194 9.02021 2.39796 9.30748 3.15635C9.60624 3.90325 9.75562 4.79952 9.75562 5.84518C9.75562 7.08618 9.59475 8.17205 9.27301 9.1028C8.96276 10.0221 8.54335 10.7862 8.01477 11.3952C7.49769 12.0042 6.91741 12.4638 6.27393 12.7741C5.63045 13.0728 4.97548 13.2222 4.30902 13.2222Z" fill="currentColor"/>
<circle cx="3.80257" cy="7.69142" r="2.41975" fill="currentColor"/>
<ellipse cx="12.5945" cy="7.00005" rx="4.47222" ry="5.44445" fill="white"/>
<path d="M11.8032 14C10.8854 14 10.0581 13.8061 9.32122 13.4183C8.58438 13.0305 8.00266 12.4294 7.57607 11.615C7.1624 10.7876 6.95557 9.72761 6.95557 8.4349C6.95557 7.40074 7.09776 6.46353 7.38216 5.62327C7.66655 4.77008 8.02851 4.0397 8.46803 3.43213C8.90755 2.81163 9.35353 2.3398 9.80598 2.01662C10.2584 1.68052 10.6398 1.51247 10.95 1.51247C11.2344 1.51247 11.4348 1.56417 11.5511 1.66759C11.6804 1.77101 11.745 1.96491 11.745 2.24931C11.745 2.46907 11.6998 2.66944 11.6093 2.85042C11.5188 3.01847 11.3831 3.18652 11.2021 3.35457C10.7755 3.7036 10.4006 4.14312 10.0775 4.67313C9.75427 5.19021 9.5022 5.76547 9.32122 6.39889C9.15317 7.03232 9.06914 7.71099 9.06914 8.4349C9.06914 9.09418 9.16609 9.68883 9.36 10.2188C9.5539 10.7359 9.85123 11.1496 10.252 11.4598C10.6527 11.7572 11.1827 11.9058 11.842 11.9058C12.5401 11.9058 13.1864 11.6731 13.7811 11.2078C14.3886 10.7295 14.8734 10.0249 15.2353 9.09418C15.6102 8.16343 15.7977 7.03232 15.7977 5.70083C15.7977 5.0157 15.7136 4.40166 15.5456 3.85873C15.3905 3.30286 15.1384 2.86981 14.7894 2.55956C14.4403 2.24931 13.9814 2.09418 13.4126 2.09418C12.9214 2.09418 12.469 2.17174 12.0553 2.32687C11.6546 2.48199 11.2861 2.70175 10.95 2.98615C10.6139 3.27054 10.2907 3.60665 9.9805 3.99446C9.87708 4.12373 9.74781 4.23361 9.59269 4.3241C9.43756 4.41459 9.25012 4.45983 9.03036 4.45983C8.75889 4.45983 8.5262 4.35642 8.3323 4.14958C8.13839 3.94275 8.04144 3.69714 8.04144 3.41274C8.04144 3.11542 8.17071 2.77932 8.42925 2.40443C8.68779 2.01662 9.05621 1.64174 9.53451 1.27978C10.0128 0.904894 10.5816 0.601108 11.2409 0.368421C11.9002 0.122807 12.6241 0 13.4126 0C14.4339 0 15.2741 0.232687 15.9334 0.698061C16.6056 1.16343 17.1033 1.82271 17.4265 2.6759C17.7626 3.51616 17.9306 4.52447 17.9306 5.70083C17.9306 7.09695 17.7497 8.31856 17.3877 9.36565C17.0387 10.3998 16.5668 11.2595 15.9722 11.9446C15.3905 12.6297 14.7377 13.1468 14.0137 13.4958C13.2898 13.8319 12.553 14 11.8032 14Z" fill="currentColor"/>
<ellipse cx="11.2332" cy="7.77783" rx="2.72222" ry="2.72222" fill="currentColor"/>
</svg>
