<svg width="18" height="14" viewBox="0 0 18 14" fill="none" xmlns="http://www.w3.org/2000/svg">
<ellipse cx="5.01242" cy="7.00015" rx="3.97531" ry="4.83951" fill="white"/>
<path d="M4.30902 13.2223C3.49318 13.2223 2.75777 13.0499 2.1028 12.7052C1.44783 12.3605 0.930748 11.8262 0.551554 11.1022C0.183851 10.3668 0 9.4246 0 8.27553C0 7.35627 0.126398 6.52319 0.379194 5.77629C0.631989 5.01791 0.953729 4.36868 1.34441 3.82862C1.7351 3.27706 2.13153 2.85765 2.5337 2.57038C2.93588 2.27162 3.27485 2.12225 3.55063 2.12225C3.80343 2.12225 3.98153 2.16821 4.08495 2.26013C4.19986 2.35206 4.25731 2.52442 4.25731 2.77722C4.25731 2.97256 4.21709 3.15066 4.13666 3.31153C4.05622 3.46091 3.93557 3.61029 3.7747 3.75967C3.39551 4.06992 3.06228 4.46061 2.77501 4.93173C2.48774 5.39136 2.26367 5.90269 2.1028 6.46574C1.95342 7.02878 1.87873 7.63205 1.87873 8.27553C1.87873 8.86155 1.96491 9.39013 2.13727 9.86124C2.30963 10.3209 2.57392 10.6886 2.93013 10.9644C3.28634 11.2286 3.75746 11.3608 4.34349 11.3608C4.96399 11.3608 5.53853 11.154 6.0671 10.7403C6.60716 10.3151 7.03806 9.68888 7.3598 8.86155C7.69303 8.03422 7.85965 7.02878 7.85965 5.84524C7.85965 5.23623 7.78496 4.69042 7.63558 4.20781C7.49769 3.71371 7.27362 3.32877 6.96337 3.05299C6.65312 2.77722 6.2452 2.63933 5.73961 2.63933C5.30297 2.63933 4.90079 2.70827 4.53309 2.84616C4.17688 2.98405 3.84939 3.17939 3.55063 3.43219C3.25187 3.68498 2.9646 3.98374 2.68883 4.32846C2.5969 4.44337 2.48199 4.54104 2.34411 4.62148C2.20622 4.70191 2.0396 4.74213 1.84426 4.74213C1.60296 4.74213 1.39612 4.6502 1.22376 4.46635C1.0514 4.2825 0.96522 4.06418 0.96522 3.81138C0.96522 3.54709 1.08013 3.24834 1.30994 2.91511C1.53976 2.57038 1.86724 2.23715 2.2924 1.91541C2.71755 1.58218 3.22315 1.31215 3.80917 1.10532C4.3952 0.886994 5.03868 0.777832 5.73961 0.777832C6.64738 0.777832 7.39428 0.984665 7.9803 1.39833C8.57782 1.812 9.02021 2.39802 9.30748 3.15641C9.60624 3.90331 9.75562 4.79958 9.75562 5.84524C9.75562 7.08624 9.59475 8.17211 9.27301 9.10286C8.96276 10.0221 8.54335 10.7862 8.01477 11.3953C7.49769 12.0043 6.91741 12.4639 6.27393 12.7741C5.63045 13.0729 4.97548 13.2223 4.30902 13.2223Z" fill="currentColor"/>
<circle cx="3.80257" cy="7.69148" r="2.41975" fill="currentColor"/>
<ellipse cx="12.5943" cy="7.00011" rx="4.47222" ry="5.44445" fill="white"/>
<path d="M11.8027 14C10.8849 14 10.0576 13.8061 9.32073 13.4183C8.58389 13.0305 8.00217 12.4294 7.57558 11.615C7.16191 10.7876 6.95508 9.72761 6.95508 8.4349C6.95508 7.40074 7.09728 6.46353 7.38167 5.62327C7.66607 4.77008 8.02802 4.0397 8.46754 3.43213C8.90706 2.81163 9.35305 2.3398 9.80549 2.01662C10.2579 1.68052 10.6393 1.51247 10.9495 1.51247C11.2339 1.51247 11.4343 1.56417 11.5506 1.66759C11.6799 1.77101 11.7446 1.96491 11.7446 2.24931C11.7446 2.46907 11.6993 2.66944 11.6088 2.85042C11.5183 3.01847 11.3826 3.18652 11.2016 3.35457C10.775 3.7036 10.4001 4.14312 10.077 4.67313C9.75379 5.19021 9.50171 5.76547 9.32073 6.39889C9.15268 7.03232 9.06865 7.71099 9.06865 8.4349C9.06865 9.09418 9.1656 9.68883 9.35951 10.2188C9.55342 10.7359 9.85074 11.1496 10.2515 11.4598C10.6522 11.7572 11.1822 11.9058 11.8415 11.9058C12.5396 11.9058 13.1859 11.6731 13.7806 11.2078C14.3881 10.7295 14.8729 10.0249 15.2349 9.09418C15.6097 8.16343 15.7972 7.03232 15.7972 5.70083C15.7972 5.0157 15.7132 4.40166 15.5451 3.85873C15.39 3.30286 15.1379 2.86981 14.7889 2.55956C14.4398 2.24931 13.9809 2.09418 13.4121 2.09418C12.9209 2.09418 12.4685 2.17174 12.0548 2.32687C11.6541 2.48199 11.2856 2.70175 10.9495 2.98615C10.6134 3.27054 10.2903 3.60665 9.98001 3.99446C9.87659 4.12373 9.74732 4.23361 9.5922 4.3241C9.43707 4.41459 9.24963 4.45983 9.02987 4.45983C8.7584 4.45983 8.52572 4.35642 8.33181 4.14958C8.1379 3.94275 8.04095 3.69714 8.04095 3.41274C8.04095 3.11542 8.17022 2.77932 8.42876 2.40443C8.6873 2.01662 9.05572 1.64174 9.53403 1.27978C10.0123 0.904894 10.5811 0.601108 11.2404 0.368421C11.8997 0.122807 12.6236 0 13.4121 0C14.4334 0 15.2736 0.232687 15.9329 0.698061C16.6051 1.16343 17.1028 1.82271 17.426 2.6759C17.7621 3.51616 17.9301 4.52447 17.9301 5.70083C17.9301 7.09695 17.7492 8.31856 17.3872 9.36565C17.0382 10.3998 16.5663 11.2595 15.9717 11.9446C15.39 12.6297 14.7372 13.1468 14.0133 13.4958C13.2893 13.8319 12.5525 14 11.8027 14Z" fill="currentColor"/>
<ellipse cx="11.233" cy="7.77789" rx="2.72222" ry="2.72222" fill="currentColor"/>
</svg>

