<svg width="26" height="20" viewBox="0 0 26 20" fill="none" xmlns="http://www.w3.org/2000/svg">
<g clip-path="url(#clip0_164_1237)">
<path d="M7.24016 16.9136C10.4114 16.9136 12.9823 13.8183 12.9823 10C12.9823 6.18174 10.4114 3.08643 7.24016 3.08643C4.06888 3.08643 1.49805 6.18174 1.49805 10C1.49805 13.8183 4.06888 16.9136 7.24016 16.9136Z" fill="white"/>
<path d="M6.22414 18.8891C5.0457 18.8891 3.98345 18.6429 3.03738 18.1504C2.09131 17.658 1.34441 16.8947 0.796689 15.8604C0.265563 14.8099 0 13.4639 0 11.8223C0 10.5091 0.182575 9.31898 0.547725 8.25198C0.912873 7.16858 1.37761 6.24111 1.94193 5.4696C2.50626 4.68165 3.07888 4.0825 3.65979 3.67211C4.24072 3.24531 4.73034 3.03193 5.12869 3.03193C5.49384 3.03193 5.7511 3.09758 5.90048 3.2289C6.06646 3.36023 6.14945 3.60645 6.14945 3.9676C6.14945 4.24665 6.09135 4.50108 5.97518 4.7309C5.85898 4.9443 5.68471 5.1577 5.45234 5.3711C4.90463 5.81431 4.42329 6.37244 4.00835 7.04547C3.5934 7.70208 3.26975 8.43255 3.03738 9.23691C2.82161 10.0413 2.71372 10.9031 2.71372 11.8223C2.71372 12.6595 2.8382 13.4146 3.08717 14.0876C3.33613 14.7443 3.71788 15.2696 4.23241 15.6636C4.74694 16.041 5.42744 16.2299 6.27393 16.2299C7.17021 16.2299 8.0001 15.9344 8.76359 15.3434C9.54368 14.736 10.1661 13.8414 10.6308 12.6595C11.1122 11.4776 11.3528 10.0413 11.3528 8.35048C11.3528 7.48047 11.2449 6.70074 11.0292 6.0113C10.83 5.30544 10.5063 4.75553 10.0582 4.36155C9.61006 3.9676 9.02084 3.77061 8.29055 3.77061C7.65985 3.77061 7.07892 3.8691 6.5478 4.06608C6.03327 4.26307 5.56023 4.54213 5.12869 4.90327C4.69715 5.2644 4.2822 5.6912 3.88387 6.18365C3.75108 6.34781 3.5851 6.48734 3.38594 6.60225C3.18676 6.71715 2.94609 6.77461 2.66393 6.77461C2.31539 6.77461 2.01662 6.64328 1.76765 6.38064C1.51869 6.118 1.39421 5.80611 1.39421 5.44497C1.39421 5.06741 1.56019 4.64063 1.89214 4.16458C2.2241 3.67211 2.69712 3.19607 3.31124 2.73644C3.92535 2.2604 4.65566 1.87464 5.50213 1.57917C6.34862 1.26727 7.27809 1.11133 8.29055 1.11133C9.60177 1.11133 10.6806 1.4068 11.5271 1.99775C12.3902 2.58871 13.0292 3.42588 13.4441 4.5093C13.8757 5.5763 14.0915 6.85668 14.0915 8.35048C14.0915 10.1233 13.8591 11.6746 13.3943 13.0042C12.9462 14.3174 12.3404 15.409 11.5769 16.2791C10.83 17.1491 9.99181 17.8057 9.06234 18.2489C8.13287 18.6757 7.1868 18.8891 6.22414 18.8891Z" fill="black"/>
<path d="M5.49226 14.4448C7.42261 14.4448 8.98746 12.8972 8.98746 10.988C8.98746 9.07891 7.42261 7.53125 5.49226 7.53125C3.56192 7.53125 1.99707 9.07891 1.99707 10.988C1.99707 12.8972 3.56192 14.4448 5.49226 14.4448Z" fill="black"/>
<path d="M18.1913 17.7777C21.759 17.7777 24.6512 14.2955 24.6512 9.99995C24.6512 5.7044 21.759 2.22217 18.1913 2.22217C14.6236 2.22217 11.7314 5.7044 11.7314 9.99995C11.7314 14.2955 14.6236 17.7777 18.1913 17.7777Z" fill="white"/>
<path d="M17.048 20C15.7223 20 14.5273 19.723 13.4629 19.169C12.3986 18.615 11.5584 17.7563 10.9422 16.5929C10.3447 15.4109 10.0459 13.8966 10.0459 12.0499C10.0459 10.5725 10.2513 9.23361 10.6621 8.03324C11.0729 6.8144 11.5957 5.771 12.2306 4.90304C12.8654 4.01661 13.5096 3.34257 14.1632 2.88089C14.8166 2.40074 15.3675 2.16067 15.8156 2.16067C16.2264 2.16067 16.5159 2.23453 16.6839 2.38227C16.8706 2.53001 16.9641 2.80701 16.9641 3.2133C16.9641 3.52724 16.8987 3.81349 16.7679 4.07203C16.6372 4.3121 16.4412 4.55217 16.1798 4.79224C15.5636 5.29086 15.022 5.91874 14.5553 6.6759C14.0885 7.41459 13.7244 8.23639 13.4629 9.14127C13.2202 10.0462 13.0988 11.0157 13.0988 12.0499C13.0988 12.9917 13.2389 13.8412 13.519 14.5983C13.7991 15.337 14.2285 15.928 14.8074 16.3711C15.3862 16.796 16.1517 17.0083 17.1041 17.0083C18.1124 17.0083 19.046 16.6759 19.905 16.0111C20.7825 15.3279 21.4827 14.3213 22.0056 12.9917C22.547 11.662 22.8178 10.0462 22.8178 8.14404C22.8178 7.16529 22.6965 6.28809 22.4537 5.51247C22.2297 4.71837 21.8655 4.09973 21.3614 3.65651C20.8572 3.2133 20.1943 2.99169 19.3727 2.99169C18.6632 2.99169 18.0097 3.10249 17.4122 3.3241C16.8334 3.5457 16.3011 3.85964 15.8156 4.26593C15.3301 4.6722 14.8634 5.15236 14.4152 5.70637C14.2659 5.89104 14.0791 6.04801 13.8551 6.17729C13.631 6.30656 13.3602 6.37119 13.0428 6.37119C12.6507 6.37119 12.3146 6.22346 12.0345 5.92797C11.7544 5.6325 11.6144 5.28163 11.6144 4.87534C11.6144 4.4506 11.8011 3.97046 12.1745 3.4349C12.548 2.88089 13.0802 2.34534 13.771 1.82826C14.4619 1.29271 15.2835 0.858726 16.2358 0.526316C17.1881 0.175439 18.2338 0 19.3727 0C20.8479 0 22.0615 0.33241 23.0139 0.99723C23.9848 1.66204 24.7037 2.60387 25.1706 3.82271C25.656 5.02309 25.8987 6.46353 25.8987 8.14404C25.8987 10.1385 25.6374 11.8837 25.1145 13.3795C24.6104 14.8569 23.9288 16.085 23.0699 17.0637C22.2297 18.0424 21.2867 18.7811 20.2411 19.2797C19.1953 19.7599 18.1311 20 17.048 20Z" fill="black"/>
<path d="M16.2251 14.9999C18.3967 14.9999 20.1572 13.2588 20.1572 11.1111C20.1572 8.96328 18.3967 7.22217 16.2251 7.22217C14.0534 7.22217 12.293 8.96328 12.293 11.1111C12.293 13.2588 14.0534 14.9999 16.2251 14.9999Z" fill="black"/>
</g>
<defs>
<clipPath id="clip0_164_1237">
<rect width="26" height="20" fill="white"/>
</clipPath>
</defs>
</svg>
