<?xml version="1.0" encoding="UTF-8"?>
<!DOCTYPE svg PUBLIC "-//W3C//DTD SVG 1.1//EN" "http://www.w3.org/Graphics/SVG/1.1/DTD/svg11.dtd">
<svg version="1.1" xmlns="http://www.w3.org/2000/svg" xmlns:xlink="http://www.w3.org/1999/xlink" viewBox="0 0 12.8857 12.9039">
    <g>
        <rect height="12.9039" opacity="0" width="12.8857" x="0" y="0"/>
        <path d="M7.14149 12.1911L7.14149 0.702802C7.14149 0.328168 6.8282 0 6.44697 0C6.06574 0 5.74417 0.328168 5.74417 0.702802L5.74417 12.1911C5.74417 12.5658 6.06574 12.8939 6.44697 12.8939C6.8282 12.8939 7.14149 12.5658 7.14149 12.1911ZM0.702802 7.14977L12.1911 7.14977C12.5658 7.14977 12.8857 6.8282 12.8857 6.44697C12.8857 6.06574 12.5658 5.74417 12.1911 5.74417L0.702802 5.74417C0.319887 5.74417-2.22045e-16 6.06574-2.22045e-16 6.44697C-2.22045e-16 6.8282 0.319887 7.14977 0.702802 7.14977Z" fill="currentColor"/>
    </g>
</svg>
