<svg width="16" height="17" viewBox="0 0 16 17" fill="none" xmlns="http://www.w3.org/2000/svg">
<path d="M1.33333 8.5H14.6667" stroke="currentColor" stroke-width="1.5" stroke-linecap="round" stroke-linejoin="round"/>
<path d="M13.3333 8.5V13.8333C13.3333 14.187 13.1929 14.5261 12.9428 14.7761C12.6928 15.0262 12.3536 15.1667 12 15.1667H4C3.64638 15.1667 3.30724 15.0262 3.05719 14.7761C2.80714 14.5261 2.66667 14.187 2.66667 13.8333V8.5" stroke="currentColor" stroke-width="1.5" stroke-linecap="round" stroke-linejoin="round"/>
<path d="M2.66667 5.83332L13.3333 3.16666" stroke="currentColor" stroke-width="1.5" stroke-linecap="round" stroke-linejoin="round"/>
<path d="M5.90667 5.02L5.60667 3.81333C5.56368 3.64349 5.5546 3.46684 5.57992 3.29348C5.60525 3.12012 5.66449 2.95345 5.75427 2.803C5.84404 2.65255 5.96259 2.52126 6.10313 2.41665C6.24367 2.31204 6.40345 2.23616 6.57333 2.19333L7.86667 1.87333C8.03696 1.83045 8.21405 1.82164 8.38775 1.84739C8.56146 1.87315 8.72837 1.93296 8.8789 2.0234C9.02943 2.11384 9.16061 2.23313 9.26491 2.37441C9.36921 2.51569 9.44457 2.67618 9.48667 2.84666L9.78667 4.04666" stroke="currentColor" stroke-width="1.5" stroke-linecap="round" stroke-linejoin="round"/>
</svg>
