<svg width="14" height="14" viewBox="0 0 14 14" fill="none" xmlns="http://www.w3.org/2000/svg">
<rect x="2.76904" y="11" width="0.769243" height="1" fill="white"/>
<rect x="3.53857" y="10.0001" width="0.769243" height="1" fill="white"/>
<rect x="4.30762" y="9" width="0.769243" height="1" fill="white"/>
<rect x="5.07666" y="8.00006" width="0.769243" height="1" fill="white"/>
<rect x="5.84619" y="7.00006" width="0.769243" height="1" fill="white"/>
<rect x="5.07666" y="6" width="0.769243" height="1" fill="white"/>
<rect x="4.30762" y="5" width="0.769243" height="1" fill="white"/>
<rect x="3.53857" y="4" width="0.769243" height="1" fill="white"/>
<rect x="2.76904" y="3.00006" width="0.769243" height="1" fill="white"/>
<rect x="2" y="2" width="0.769243" height="1" fill="white"/>
<rect x="2.76904" y="2" width="0.769243" height="1" fill="white"/>
<rect x="3.53857" y="2" width="0.769243" height="1" fill="white"/>
<rect x="4.30762" y="2" width="0.769243" height="1" fill="white"/>
<rect x="5.07666" y="3.00006" width="0.769243" height="1" fill="white"/>
<rect x="6.61523" y="5" width="0.769243" height="1" fill="white"/>
<rect x="7.38428" y="5" width="0.769243" height="1" fill="white"/>
<rect x="8.1543" y="4" width="0.769243" height="1" fill="white"/>
<rect x="8.92334" y="3.00006" width="0.769243" height="1" fill="white"/>
<rect x="9.69238" y="2" width="0.769243" height="1" fill="white"/>
<rect x="7.38428" y="6" width="0.769243" height="1" fill="white"/>
<rect x="8.1543" y="7.00006" width="0.769243" height="1" fill="white"/>
<rect x="8.92334" y="8.00006" width="0.769243" height="1" fill="white"/>
<rect x="9.69238" y="9" width="0.769243" height="1" fill="white"/>
<rect x="10.4614" y="10.0001" width="0.769243" height="1" fill="white"/>
<rect x="11.2305" y="11" width="0.769243" height="1" fill="white"/>
<rect x="10.4614" y="11" width="0.769243" height="1" fill="white"/>
<rect x="9.69238" y="11" width="0.769243" height="1" fill="white"/>
<rect x="8.92334" y="11" width="0.769243" height="1" fill="white"/>
<rect x="8.1543" y="10.0001" width="0.769243" height="1" fill="white"/>
<rect x="7.38428" y="9" width="0.769243" height="1" fill="white"/>
<rect x="6.61523" y="8.00006" width="0.769243" height="1" fill="white"/>
<rect x="5.84619" y="4" width="0.769243" height="1" fill="white"/>
</svg>
