<svg width="24" height="24" viewBox="0 0 24 24" fill="none" xmlns="http://www.w3.org/2000/svg">
<path d="M19.5065 3.02407L3.01412 19.5139C2.62124 19.9068 2.60882 20.593 3.01412 20.9983C3.42932 21.4011 4.10305 21.4011 4.50836 20.9983L20.9884 4.51831C21.3911 4.113 21.4035 3.42684 20.9884 3.02407C20.5706 2.63119 19.9093 2.61877 19.5065 3.02407ZM20.9884 19.5139L4.50836 3.02407C4.10305 2.63119 3.41689 2.61877 3.01412 3.02407C2.62124 3.43926 2.62124 4.113 3.01412 4.51831L19.5065 20.9983C19.8969 21.4011 20.583 21.4011 20.9884 20.9983C21.3911 20.5806 21.3911 19.9068 20.9884 19.5139Z" fill="currentColor"/>
</svg>
