<?xml version="1.0" standalone="no"?>
<!DOCTYPE svg PUBLIC "-//W3C//DTD SVG 20010904//EN"
 "http://www.w3.org/TR/2001/REC-SVG-20010904/DTD/svg10.dtd">
<svg version="1.0" xmlns="http://www.w3.org/2000/svg"
 width="1152.000000pt" height="1152.000000pt" viewBox="0 0 1152.000000 1152.000000"
 preserveAspectRatio="xMidYMid meet">
<metadata>
Created by potrace 1.14, written by Peter Selinger 2001-2017
</metadata>
<g transform="translate(0.000000,1152.000000) scale(0.100000,-0.100000)"
fill="#000000" stroke="none">
<path d="M8335 10234 c-418 -33 -719 -89 -1024 -191 -659 -219 -1138 -509
-1604 -971 l-147 -146 -63 69 c-476 530 -1086 765 -1927 742 -506 -14 -872
-93 -1355 -292 -161 -66 -407 -197 -555 -296 -447 -298 -781 -649 -946 -994
-100 -211 -119 -383 -60 -560 l27 -80 -46 -80 c-182 -314 -373 -789 -475
-1180 -111 -426 -153 -783 -154 -1305 -1 -410 21 -674 80 -985 118 -617 345
-1076 719 -1451 195 -196 355 -310 620 -440 281 -138 590 -229 920 -271 194
-24 609 -24 785 0 631 88 1215 371 1679 813 85 81 95 87 105 70 134 -226 305
-445 482 -616 434 -422 1033 -686 1734 -765 917 -103 1797 151 2509 723 576
464 1031 1081 1334 1812 271 655 402 1223 479 2080 18 199 18 1077 0 1255 -58
574 -148 970 -320 1400 -212 531 -522 931 -952 1227 -327 225 -705 359 -1170
413 -128 15 -567 27 -675 19z m478 -1349 c392 -51 679 -235 902 -578 179 -276
315 -720 372 -1219 24 -211 24 -866 0 -1148 -60 -691 -196 -1233 -447 -1781
-320 -697 -790 -1180 -1375 -1412 -457 -181 -1102 -165 -1507 39 -357 180
-642 533 -792 985 -50 148 -98 339 -86 339 4 0 23 -17 40 -38 61 -70 195 -183
299 -254 196 -131 433 -227 669 -270 165 -30 439 -30 604 0 452 82 854 338
1120 712 123 172 241 446 282 650 122 615 -93 1259 -557 1661 -418 363 -968
505 -1516 393 -188 -39 -424 -138 -589 -249 -72 -48 -83 -52 -77 -33 3 13 48
109 100 213 217 440 469 791 762 1062 332 306 421 424 473 628 20 82 29 89
197 155 336 132 784 190 1126 145z m-4845 -360 c99 -22 235 -70 302 -108 203
-113 371 -298 495 -547 55 -110 142 -369 175 -518 l22 -103 -38 -87 c-215
-500 -358 -1007 -419 -1487 -60 -473 -69 -1017 -24 -1460 l12 -115 -62 -102
c-177 -294 -419 -553 -680 -727 -329 -219 -646 -310 -1041 -298 -281 9 -469
51 -665 147 -274 135 -506 400 -650 741 -44 105 -109 314 -122 392 l-6 42 95
-90 c223 -212 466 -339 779 -406 151 -33 437 -33 589 0 205 44 384 117 545
221 352 230 593 587 677 1002 32 161 32 445 -1 598 -38 181 -120 385 -209 524
-150 235 -388 446 -637 566 -217 104 -423 150 -678 150 -309 0 -601 -87 -851
-255 -80 -54 -80 -57 3 120 107 225 292 523 437 705 89 111 257 284 364 375
157 134 263 281 306 425 14 47 29 92 33 100 9 18 152 81 275 121 106 35 295
74 421 88 132 14 464 6 553 -14z"/>
</g>
</svg>
